<svg width="960" height="960" viewBox="0 0 960 960" fill="none" xmlns="http://www.w3.org/2000/svg">
  <defs>
    <linearGradient id="bg" x1="140" y1="120" x2="820" y2="840" gradientUnits="userSpaceOnUse">
      <stop stop-color="#081120"/>
      <stop offset="1" stop-color="#132C46"/>
    </linearGradient>
    <linearGradient id="accent" x1="246" y1="220" x2="690" y2="700" gradientUnits="userSpaceOnUse">
      <stop stop-color="#74E0B8"/>
      <stop offset="0.55" stop-color="#59A8FF"/>
      <stop offset="1" stop-color="#E4F1FF"/>
    </linearGradient>
    <linearGradient id="signal" x1="260" y1="300" x2="684" y2="660" gradientUnits="userSpaceOnUse">
      <stop stop-color="#A9F4D0"/>
      <stop offset="1" stop-color="#7CC7FF"/>
    </linearGradient>
    <filter id="softGlow" x="92" y="92" width="776" height="776" filterUnits="userSpaceOnUse" color-interpolation-filters="sRGB">
      <feFlood flood-opacity="0" result="BackgroundImageFix"/>
      <feBlend mode="normal" in="SourceGraphic" in2="BackgroundImageFix" result="shape"/>
      <feGaussianBlur stdDeviation="18" result="effect1_foregroundBlur"/>
    </filter>
  </defs>
  <rect width="960" height="960" rx="220" fill="url(#bg)"/>
  <circle cx="480" cy="480" r="312" stroke="#2D4964" stroke-width="2"/>
  <circle cx="480" cy="480" r="238" stroke="#21425A" stroke-width="2" stroke-dasharray="12 18"/>
  <g filter="url(#softGlow)">
    <path d="M276 339C276 306.967 301.967 281 334 281H550L684 415V621C684 653.033 658.033 679 626 679H334C301.967 679 276 653.033 276 621V339Z" fill="#091521"/>
    <path d="M550 281L684 415H595C570.147 415 550 394.853 550 370V281Z" fill="#112436"/>
    <path d="M364 412H504" stroke="url(#signal)" stroke-width="28" stroke-linecap="round"/>
    <path d="M364 480H562" stroke="url(#signal)" stroke-width="28" stroke-linecap="round" opacity="0.86"/>
    <path d="M364 548H471" stroke="url(#signal)" stroke-width="28" stroke-linecap="round" opacity="0.68"/>
    <path d="M616 354C646.928 354 672 328.928 672 298C672 267.072 646.928 242 616 242C585.072 242 560 267.072 560 298C560 328.928 585.072 354 616 354Z" fill="#0B1726" stroke="#32566E" stroke-width="4"/>
    <path d="M702 500C732.928 500 758 474.928 758 444C758 413.072 732.928 388 702 388C671.072 388 646 413.072 646 444C646 474.928 671.072 500 702 500Z" fill="#0B1726" stroke="#32566E" stroke-width="4"/>
    <path d="M616 718C646.928 718 672 692.928 672 662C672 631.072 646.928 606 616 606C585.072 606 560 631.072 560 662C560 692.928 585.072 718 616 718Z" fill="#0B1726" stroke="#32566E" stroke-width="4"/>
    <path d="M588 332L646 410" stroke="url(#accent)" stroke-width="16" stroke-linecap="round"/>
    <path d="M650 480L588 626" stroke="url(#accent)" stroke-width="16" stroke-linecap="round"/>
    <path d="M430 704C553.675 704 654 603.675 654 480" stroke="url(#accent)" stroke-width="18" stroke-linecap="round"/>
  </g>
  <circle cx="616" cy="298" r="18" fill="#74E0B8"/>
  <circle cx="702" cy="444" r="18" fill="#59A8FF"/>
  <circle cx="616" cy="662" r="18" fill="#E4F1FF"/>
  <path d="M176 740C229.333 687.333 286 661 346 661" stroke="#6BE3B5" stroke-width="18" stroke-linecap="round" opacity="0.78"/>
  <path d="M724 177C769.333 214.333 798.333 260.333 811 315" stroke="#67B8FF" stroke-width="16" stroke-linecap="round" opacity="0.74"/>
  <text x="480" y="830" fill="#E6F1FA" font-family="ui-sans-serif, system-ui, sans-serif" font-size="86" font-weight="700" letter-spacing="0.06em" text-anchor="middle">PATCHRELAY</text>
</svg>
